{"title":"Hercules.2014.CAM.XViD-FANTA","uid":10696012,"size":1449523484,"categoryP":"video","categoryS":"movies","magnet":"?xt=urn:btih:a6c4bcf9f802e248274881bc61349876205244e0&amp;dn=Hercules.2014.CAM.XViD-FANTA&amp;tr=udp%3A%2F%2Ftracker.openbittorrent.com%3A80&amp;tr=udp%3A%2F%2Fopen.demonii.com%3A1337&amp;tr=udp%3A%2F%2Ftracker.coppersurfer.tk%3A6969&amp;tr=udp%3A%2F%2Fexodus.desync.com%3A6969","seeders":2,"leechers":0,"uploader":"lokioddin","files":6,"time":1407170178,"description":"SilverTorrent - Clean And Verified Torrents Download\n\n\nHercules 2014 CAM XViD-FANTA\n\n\n &lt;a href=&quot;\nhttp://www.imdb.com/title/tt1267297/&quot; rel=&quot;nofollow&quot; target=&quot;_NEW&quot;&gt;\nhttp://www.imdb.com/title/tt1267297/&lt;/a&gt;\n\n\nHaving endured his legendary twelve labors, Hercules, the Greek demigod, has his life as a sword-for-hire tested when the King of Thrace and his daughter seek his aid in defeating a tyrannical warlord.\n\nDirector: Brett Ratner\nWriters: Ryan Condal (screenplay), Evan Spiliotopoulos (screenplay)\nStars: Dwayne Johnson, John Hurt, Ian McShane\nGenres: Action | Adventure\nCountry: USA\nLanguage: English\n\n\nFormat                                   : AVI\nFormat/Info                              : Audio Video Interleave\nFormat profile                           : OpenDML\nFormat settings                          : rec\nFile size                                : 1.35 GiB\nDuration                                 : 1h 32mn\nOverall bit rate                         : 2 088 Kbps\nWriting application                      : AVI-Mux GUI 1.17.8.3, Feb 16 201019:42:50\n\nVideo\nID                                       : 0\nFormat                                   : MPEG-4 Visual\nFormat profile                           : Advanced Simple@L5\nFormat settings, BVOP                    : 2\nFormat settings, QPel                    : No\nFormat settings, GMC                     : No warppoints\nFormat settings, Matrix                  : Default (H.263)\nMuxing mode                              : Packed bitstream\nCodec ID                                 : XVID\nCodec ID/Hint                            : XviD\nDuration                                 : 1h 32mn\nBit rate                                 : 1 890 Kbps\nWidth                                    : 720 pixels\nHeight                                   : 480 pixels\nDisplay aspect ratio                     : 3:2\nFrame rate                               : 29.970 fps\nStandard                                 : NTSC\nColor space                              : YUV\nChroma subsampling                       : 4:2:0\nBit depth                                : 8 bits\nScan type                                : Progressive\nCompression mode                         : Lossy\nBits/(Pixel*Frame)                       : 0.182\nStream size                              : 1.22 GiB (91%)\nWriting library                          : XviD 64\n\nAudio\nID                                       : 1\nFormat                                   : AC-3\nFormat/Info                              : Audio Coding 3\nMode extension                           : CM (complete main)\nFormat settings, Endianness              : Big\nCodec ID                                 : 2000\nDuration                                 : 1h 32mn\nBit rate mode                            : Constant\nBit rate                                 : 192 Kbps\nChannel(s)                               : 2 channels\nChannel positions                        : Front: L R\nSampling rate                            : 48.0 KHz\nBit depth                                : 16 bits\nCompression mode                         : Lossy\nStream size                              : 127 MiB (9%)\nAlignment                                : Aligned on interleaves\nInterleave, duration                     : 64 ms (1.92 video frames)\nInterleave, preload duration             : 192 ms\nTitle                                    : Hercules - 2014\n &lt;a href=&quot;\nhttp://i.imgur.com/53debKZ.jpg&quot; rel=&quot;nofollow&quot; target=&quot;_NEW&quot;&gt;\nhttp://i.imgur.com/53debKZ.jpg&lt;/a&gt;\n &lt;a href=&quot;\nhttp://i.imgur.com/825kMlk.jpg&quot; rel=&quot;nofollow&quot; target=&quot;_NEW&quot;&gt;\nhttp://i.imgur.com/825kMlk.jpg&lt;/a&gt;\n &lt;a href=&quot;\nhttp://i.imgur.com/aBwhTu2.jpg&quot; rel=&quot;nofollow&quot; target=&quot;_NEW&quot;&gt;\nhttp://i.imgur.com/aBwhTu2.jpg&lt;/a&gt;\n &lt;a href=&quot;\nhttp://i.imgur.com/m5oht5j.jpg&quot; rel=&quot;nofollow&quot; target=&quot;_NEW&quot;&gt;\nhttp://i.imgur.com/m5oht5j.jpg&lt;/a&gt;\n\n\nSilverTorrent - Clean And Verified Torrents Download\n\n","torrent":{"xt":"urn:btih:a6c4bcf9f802e248274881bc61349876205244e0","amp;dn":"Hercules.2014.CAM.XViD-FANTA","amp;tr":["udp%3A%2F%2Ftracker.openbittorrent.com%3A80","udp%3A%2F%2Fopen.demonii.com%3A1337","udp%3A%2F%2Ftracker.coppersurfer.tk%3A6969","udp%3A%2F%2Fexodus.desync.com%3A6969"],"infoHash":"a6c4bcf9f802e248274881bc61349876205244e0","infoHashBuffer":{"type":"Buffer","data":[166,196,188,249,248,2,226,72,39,72,129,188,97,52,152,118,32,82,68,224]},"announce":[],"urlList":[]}}